<svg width="60" height="61" viewBox="0 0 60 61" fill="none" xmlns="http://www.w3.org/2000/svg">
<path d="M29.2244 0.117957C31.9299 -0.260005 36.237 0.331517 38.8993 1.02585C35.5745 3.54029 34.5744 6.53073 35.5841 10.5546C34.3323 10.2898 33.2628 10.1152 31.9739 10.0799C26.5813 9.94006 21.3528 11.9405 17.4311 15.6439C13.4961 19.4144 11.5811 24.4177 11.4352 29.8373C10.9917 46.3213 27.9682 55.815 42.2378 47.93C43.0074 47.5146 43.7425 47.0383 44.4362 46.5058C47.8608 43.8373 48.5843 42.1806 52.879 45.4529C55.9862 47.8205 56.4026 49.6618 53.3137 52.4706C42.1243 62.9925 22.4754 63.1689 10.7314 53.4706C4.63562 48.4815 0.815582 41.2405 0.139382 33.3929C-0.935222 21.8589 4.24488 10.6433 14.2603 4.64699C19.1509 1.71902 23.6015 0.577613 29.2244 0.117957Z" fill="#1A56DB"/>
<path d="M54.0097 15.8687L54.6308 15.8238C54.6308 15.8238 54.977 15.8127 55.2431 15.8821C55.5091 15.9515 57.2469 22.243 57.3535 24.1317C57.4507 25.8523 57.9327 29.0552 56.6924 30.3828C55.9791 31.1463 54.8881 31.1432 53.8512 31.1463C47.1239 31.1661 40.3654 31.1546 33.6412 31.1575L26.0954 31.159C24.0557 31.1588 22.2113 31.5819 20.6615 30.1414C19.5243 28.3153 19.9375 25.8085 22.3473 25.607C24.9754 25.3872 27.7627 25.4955 30.4161 25.4966L46.6493 25.5063C46.4697 21.6658 45.6058 19.1965 43.2334 16.1248C46.0652 16.1518 51.0089 16.3991 54.0097 15.8687Z" fill="#1A56DB"/>
<path d="M38.5075 5.86257C38.5075 3.40967 40.4959 1.4212 42.9488 1.4212H55.3805C57.8334 1.4212 59.8219 3.40967 59.8219 5.86257V9.54102C59.8219 11.9939 57.8334 13.9824 55.3805 13.9824H42.9488C40.4959 13.9824 38.5075 11.9939 38.5075 9.54102V5.86257Z" fill="#E03B3B"/>
<path d="M20.0564 38.3817C20.0564 36.648 21.4617 35.2426 23.1954 35.2426H42.671C44.4046 35.2426 45.81 36.648 45.81 38.3817C45.81 40.1153 44.4046 41.5207 42.671 41.5207H23.1954C21.4617 41.5207 20.0564 40.1153 20.0564 38.3817Z" fill="#4B5563"/>
</svg>
