<svg width="117" height="33" viewBox="0 0 117 33" fill="none" xmlns="http://www.w3.org/2000/svg">
<path d="M16.2335 0C7.28376 0 0 7.28086 0 16.2335C0 25.186 7.28086 32.4669 16.2335 32.4669C25.186 32.4669 32.4669 25.186 32.4669 16.2335C32.4669 7.28086 25.186 0 16.2335 0ZM8.0921 16.2335C8.0921 11.7369 11.7369 8.0921 16.2335 8.0921C20.73 8.0921 24.3748 11.7369 24.3748 16.2335C24.3748 20.73 20.73 24.3748 16.2335 24.3748C11.7369 24.3748 8.0921 20.73 8.0921 16.2335ZM16.2335 31.9628C15.1499 31.9628 14.0924 31.8527 13.0696 31.6441C19.8464 29.7898 24.8268 23.5983 24.8268 16.2335C24.8268 8.86857 19.8435 2.67709 13.0696 0.822827C14.0924 0.614223 15.1499 0.504127 16.2335 0.504127C24.9079 0.504127 31.9628 7.5619 31.9628 16.2335C31.9628 24.905 24.905 31.9628 16.2335 31.9628Z" fill="#4B5563"/>
<path d="M99.4644 10.0333C100.42 10.0333 101.194 9.25892 101.194 8.30365C101.194 7.34838 100.42 6.57397 99.4644 6.57397C98.5092 6.57397 97.7348 7.34838 97.7348 8.30365C97.7348 9.25892 98.5092 10.0333 99.4644 10.0333Z" fill="#4B5563"/>
<path d="M59.7253 11.4529C59.0387 10.7952 58.1492 10.462 57.0859 10.462C56.3297 10.462 55.6315 10.6359 55.0115 10.9749C54.5247 11.2414 54.0959 11.5978 53.728 12.0382L53.5686 10.8097H50.7032V22.9638H53.9192V17.1258C53.9192 16.4246 54.0293 15.7756 54.2437 15.1962C54.4552 14.6254 54.7594 14.1677 55.1476 13.8345C55.5301 13.5071 55.956 13.3477 56.4514 13.3477C56.8802 13.3477 57.2221 13.481 57.4915 13.7591C57.7668 14.0402 57.9464 14.4516 58.0275 14.9731L58.0594 15.173L61.2377 14.5037L61.1914 14.3125C60.8929 13.0609 60.3975 12.099 59.7195 11.45L59.7253 11.4529Z" fill="#4B5563"/>
<path d="M68.9242 10.462C67.5914 10.462 66.4992 10.8126 65.6705 11.5021V5.14258H62.4546V22.9637H65.3229L65.4272 22.0482C65.8096 22.4162 66.2558 22.7088 66.7599 22.9174C67.3915 23.181 68.1187 23.3143 68.9271 23.3143C70.564 23.3143 71.8388 22.7522 72.7167 21.6397C73.583 20.5416 74.0234 18.9423 74.0234 16.8881C74.0234 14.834 73.583 13.2347 72.7167 12.1366C71.8388 11.0241 70.564 10.462 68.9271 10.462H68.9242ZM70.8045 16.8881C70.8045 18.1166 70.5901 19.0119 70.17 19.5507C69.7586 20.0752 69.0835 20.3388 68.1622 20.3388C67.2409 20.3388 66.6411 20.1041 66.2587 19.6435C65.8676 19.1712 65.6705 18.3831 65.6705 17.3025V16.4738C65.6705 15.3903 65.8676 14.6022 66.2587 14.1328C66.6411 13.6722 67.2814 13.4375 68.1622 13.4375C69.043 13.4375 69.7615 13.704 70.17 14.2255C70.5901 14.7644 70.8045 15.6597 70.8045 16.8881Z" fill="#4B5563"/>
<path d="M80.9566 18.4295L78.2795 10.8097H74.8636L79.2935 22.7697L77.4016 27.3242H80.803L82.5964 22.8392L87.0524 10.8097H83.6365L80.9566 18.4295Z" fill="#4B5563"/>
<path d="M92.6819 8.99606V6.88684H89.4659V8.99606C89.4659 9.62477 89.3298 10.0912 89.0603 10.381C88.7909 10.6707 88.3997 10.8098 87.8695 10.8098H87.6783V13.7186H89.379V17.6705C89.379 19.348 89.9179 20.6663 90.9812 21.5876C92.0358 22.5003 93.5192 22.9638 95.3909 22.9638H95.5821V19.9681H95.3909C94.4522 19.9681 93.7394 19.7797 93.2759 19.4089C92.8181 19.0438 92.595 18.476 92.595 17.6705V13.7186H95.5821V10.8098H91.9634C92.4414 10.323 92.6819 9.71459 92.6819 8.99316V8.99606Z" fill="#4B5563"/>
<path d="M115.759 12.015C115.802 11.957 115.825 11.8875 115.825 11.8035C115.825 11.7542 115.82 11.7108 115.805 11.6702C115.791 11.6296 115.773 11.5949 115.747 11.5659C115.721 11.5369 115.692 11.5108 115.654 11.4906C115.617 11.4703 115.576 11.4558 115.53 11.4471C115.483 11.4384 115.434 11.4326 115.379 11.4326H114.693V12.7827H114.982V12.2786H115.304C115.359 12.2786 115.402 12.2844 115.431 12.2989C115.46 12.3134 115.481 12.3337 115.492 12.3597C115.504 12.3858 115.51 12.4177 115.51 12.4554V12.6263C115.51 12.6582 115.51 12.6871 115.515 12.7161C115.518 12.7422 115.524 12.7654 115.53 12.7799H115.82C115.808 12.7538 115.802 12.7277 115.799 12.7016C115.799 12.6755 115.799 12.6495 115.799 12.6263V12.4032C115.799 12.354 115.791 12.3105 115.776 12.2757C115.762 12.241 115.738 12.212 115.704 12.1888C115.672 12.1656 115.628 12.1511 115.576 12.1424V12.1309C115.652 12.1106 115.712 12.07 115.759 12.0121V12.015ZM115.481 11.9947C115.449 12.0324 115.391 12.0497 115.313 12.0497H114.982V11.6702H115.313C115.344 11.6702 115.373 11.6731 115.399 11.6818C115.426 11.6876 115.449 11.6992 115.469 11.7137C115.489 11.7281 115.504 11.7484 115.515 11.7687C115.527 11.7919 115.53 11.8209 115.53 11.8556C115.53 11.9107 115.512 11.957 115.481 11.9947Z" fill="#4B5563"/>
<path d="M115.22 10.5895C114.365 10.5895 113.667 11.2848 113.667 12.1424C113.667 13 114.362 13.6954 115.22 13.6954C116.077 13.6954 116.773 13 116.773 12.1424C116.773 11.2848 116.077 10.5895 115.22 10.5895ZM115.22 13.4404C114.504 13.4404 113.922 12.858 113.922 12.1424C113.922 11.4268 114.504 10.8444 115.22 10.8444C115.935 10.8444 116.518 11.4268 116.518 12.1424C116.518 12.858 115.935 13.4404 115.22 13.4404Z" fill="#4B5563"/>
<path d="M101.058 10.7257H97.868V22.9088H101.058V10.7257Z" fill="#4B5563"/>
<path d="M111.085 16.1233C110.552 15.8886 109.863 15.6597 109.04 15.4453C108.501 15.2889 108.084 15.1556 107.8 15.0513C107.536 14.9528 107.313 14.8195 107.139 14.6573C106.983 14.5124 106.907 14.3299 106.907 14.0952C106.907 13.846 107.006 13.6345 107.212 13.4462C107.42 13.2579 107.719 13.1623 108.098 13.1623C108.542 13.1623 108.901 13.2724 109.167 13.4868C109.434 13.704 109.587 13.9735 109.64 14.3183L109.669 14.5182L112.661 13.8982L112.63 13.7156C112.447 12.7045 111.96 11.9048 111.181 11.337C110.41 10.7749 109.364 10.491 108.075 10.491C106.696 10.491 105.627 10.8097 104.903 11.4355C104.17 12.07 103.799 12.9797 103.799 14.1415C103.799 15.002 103.999 15.6945 104.39 16.2044C104.778 16.7056 105.242 17.0707 105.775 17.2909C106.285 17.5024 106.954 17.7197 107.768 17.937C108.321 18.0789 108.756 18.2093 109.057 18.3194C109.341 18.4266 109.582 18.5715 109.77 18.754C109.941 18.9192 110.025 19.1364 110.025 19.4175C110.025 19.7362 109.895 19.9998 109.628 20.2229C109.356 20.4518 108.947 20.5677 108.42 20.5677C107.817 20.5677 107.342 20.4315 107.003 20.165C106.667 19.9013 106.479 19.5421 106.427 19.0727L106.403 18.8641L103.393 19.4812L103.41 19.6522C103.532 20.7705 104.045 21.66 104.937 22.2945C105.815 22.9203 107.009 23.239 108.484 23.239C109.958 23.239 111.097 22.9087 111.9 22.2568C112.714 21.5962 113.125 20.6401 113.125 19.4175C113.125 18.5425 112.919 17.8298 112.514 17.2938C112.114 16.7665 111.63 16.3753 111.077 16.132L111.085 16.1233Z" fill="#4B5563"/>
<path d="M42.9993 10.2911C41.0668 10.2911 39.5631 10.859 38.5375 11.9774C37.5148 13.0928 36.9962 14.7153 36.9962 16.8042C36.9962 18.8932 37.5148 20.5156 38.5375 21.6311C39.566 22.7494 41.0668 23.3173 42.9993 23.3173C44.9318 23.3173 46.4094 22.7494 47.4293 21.6311C48.4462 20.5156 48.959 18.8932 48.959 16.8042C48.959 14.7153 48.4433 13.0928 47.4293 11.9774C46.4094 10.859 44.9173 10.2911 42.9993 10.2911ZM45.0622 19.5827C44.6247 20.1448 43.9496 20.4171 43.0022 20.4171C42.0548 20.4171 41.2841 20.139 40.8524 19.5943C40.4092 19.0351 40.1948 18.0964 40.2092 16.8071C40.2237 15.5294 40.4584 14.5936 40.9075 14.0257C41.345 13.4723 42.0519 13.1913 43.0022 13.1913C43.9525 13.1913 44.6942 13.4724 45.1172 14.0228C45.5518 14.5907 45.7662 15.5236 45.7517 16.8013C45.7372 18.079 45.5055 19.0148 45.0622 19.5827Z" fill="#4B5563"/>
</svg>
