<svg width="1501" height="366" viewBox="0 0 1501 366" fill="none" xmlns="http://www.w3.org/2000/svg">
<g clip-path="url(#clip0_306_953)">
<path fill-rule="evenodd" clip-rule="evenodd" d="M514.92 121.16C521.73 121.16 528.53 121.16 535.34 121.16C532.17 125.14 527.9 128.36 525.67 133.19C521.35 142.58 521.41 154.49 527.29 163.24C529.16 166.01 531.6 168.31 533.61 170.86C527.38 170.86 521.15 170.86 514.92 170.86C514.92 214.07 514.92 257.29 514.92 300.5C514.92 306.92 515.65 313.84 514.54 320.17C512.52 331.77 502.29 340.73 490.5 340.92C479.68 341.11 468.86 333.03 466.2 322.43C464.52 315.7 465.26 308.37 465.26 301.5C465.26 258.17 465.26 214.83 465.26 171.5C455.84 169.27 445.75 172.77 436.75 167.75C419.8 158.29 420.07 133.79 436.69 124.19C445.59 119.05 455.92 122.8 465.26 120.5C465.33 88.0899 483.32 59.6999 514.73 49.2899C524.44 46.0699 534.39 46.0099 544.5 46.0099C557.23 46.0099 572.21 43.4299 581.94 53.5399C593.47 65.5299 589.76 87.1399 574.27 93.7499C556.58 101.3 524.17 86.09 515.97 110.51C514.81 113.96 514.92 117.56 514.92 121.16ZM696.76 121.46C710.98 120.19 725.2 122.44 738.71 126.72C751.78 130.86 763.62 137.65 774.18 146.33C784.22 154.59 792.97 164.82 799.34 176.19C830.46 231.73 808.79 302.34 751.42 329.9C740.46 335.16 728.61 338.63 716.5 339.88C702.19 341.35 687.23 340.33 673.48 336.03C655.68 330.47 639.75 321.19 626.53 307.96C591.65 273.04 585.51 215.58 611.12 173.66C620.96 157.53 634.59 144.88 650.71 135.2C664.6 126.85 680.79 122.89 696.76 121.46ZM1130.5 148.8C1143.41 137.81 1152.83 129.23 1169.72 124.29C1212.39 111.8 1256.6 136.59 1272.77 176.72C1278.91 191.98 1278.63 208.35 1278.63 224.5C1278.63 236.17 1278.63 247.83 1278.63 259.5C1278.63 274.5 1278.63 289.5 1278.63 304.5C1278.63 313.9 1279.28 323.64 1272.95 331.4C1259.72 347.64 1231.55 340.12 1228.37 319.28C1226.77 308.77 1228.1 297.13 1228.1 286.5C1228.1 264.83 1228.1 243.17 1228.1 221.5C1228.1 215.29 1228.71 208.7 1227.8 202.54C1225.92 189.91 1217.26 177.99 1205.25 173.29C1185.43 165.53 1163.98 177.18 1157.25 196.7C1153.84 206.59 1155.32 218.21 1155.32 228.5C1155.32 248.79 1156.03 269.23 1155.19 289.5C1139.33 289.57 1122.18 286.33 1106.5 290.44C1104.88 282.56 1105.89 273.6 1105.89 265.5C1105.89 251.17 1105.89 236.83 1105.89 222.5C1105.89 213.62 1106.79 204.18 1103.8 195.64C1097.07 176.44 1075.81 166.09 1056.65 173.21C1043.94 177.94 1034.75 190.12 1033.18 203.52C1032.46 209.74 1032.94 216.24 1032.94 222.5C1032.94 243.83 1032.94 265.17 1032.94 286.5C1032.94 296.92 1034.11 308.12 1032.78 318.46C1030.01 340.16 1002.24 347.89 988.66 330.82C982.53 323.11 983.33 313.81 983.33 304.5C983.33 288.5 983.33 272.5 983.33 256.5C983.33 245.17 983.33 233.83 983.33 222.5C983.33 208.86 982.87 194.83 987.25 181.7C998.06 149.32 1026.25 125.28 1060.5 121.76C1071.77 120.6 1083.7 121.2 1094.49 124.99C1103.61 128.19 1112.26 132.56 1119.77 138.71C1123.56 141.81 1126.62 145.95 1130.5 148.8ZM1425.78 121.5C1422.43 125.62 1418.69 128.88 1416.39 133.83C1410.08 147.36 1415.77 160.69 1425.34 170.5C1408.6 172.53 1391.33 169.61 1374.5 170.97C1367.37 171.54 1359.61 176.38 1360.33 184.45C1360.82 189.97 1365.92 193.85 1370.63 195.84C1381.94 200.64 1394.53 203.66 1406.27 207.3C1416.86 210.59 1427.33 214.3 1437.94 217.52C1465.28 225.8 1489.97 235.46 1498.98 265.53C1500.63 271.04 1501.18 276.77 1501.15 282.5C1501.12 289.53 1500.03 296.15 1497.1 302.57C1476.33 348.07 1424.68 340.51 1383.5 340.51C1373.5 340.51 1363.5 340.51 1353.5 340.51C1346.93 340.51 1340.29 340.97 1334.08 338.44C1311.52 329.23 1315.15 296.37 1338.54 291.09C1347.98 288.96 1358.87 290.39 1368.5 290.39C1387.17 290.39 1405.83 290.39 1424.5 290.39C1433.35 290.39 1450.55 292.21 1451.96 279.5C1452.57 273.95 1449.09 269.59 1444.47 267.02C1436.71 262.69 1421.93 259.47 1412.99 256.51C1401.45 252.69 1389.88 248.98 1378.32 245.25C1351.35 236.55 1324.59 229.32 1314.34 199.23C1311.91 192.1 1310.74 185.05 1310.91 177.5C1311.53 150.22 1335.15 128.76 1360.64 123.29C1374.06 120.42 1387.86 121.18 1401.5 121.18C1409.47 121.18 1417.9 120.43 1425.78 121.5ZM908.92 128.5C900.54 138.98 899.19 154.12 907.05 165.4C910.52 170.39 915.13 173.22 920.09 176.5C915.08 180.29 910.05 183.57 905.98 188.49C892.21 205.15 894.79 226.28 894.79 246.5C894.79 270.05 896.06 293.99 894.74 317.5C893.76 334.98 876.16 346.64 859.82 339.63C844.65 333.11 845.1 318.53 845.1 304.5C845.1 296.83 845.1 289.17 845.1 281.5C845.1 265.83 845.1 250.17 845.1 234.5C845.1 222.84 844.66 211.06 847.24 199.6C851.38 181.17 860.47 164.59 873.46 150.96C880.82 143.24 889.81 136.57 899.39 131.88C902.55 130.33 905.45 128.28 908.92 128.5ZM696.58 171.31C653.47 177.35 630.17 226.47 654.29 263.25C658.2 269.2 663.09 274.41 668.84 278.63C674.74 282.95 681.31 286.3 688.38 288.24C696.49 290.47 705.13 290.95 713.46 289.76C720.28 288.79 726.64 286.41 732.7 283.21C779.67 258.43 770.54 186.17 719.55 172.82C712.12 170.88 704.22 170.24 696.58 171.31Z" fill="#394554" stroke="#394554" stroke-width="0.25" stroke-linejoin="round"/>
<path fill-rule="evenodd" clip-rule="evenodd" d="M234.482 6.65221C221.957 17.2253 213.175 29.1682 212.637 46.2052C212.449 52.0334 214.544 57.7631 214.464 63.4123C205.144 62.6424 196.165 60.7802 186.71 60.9861C166.683 61.4248 147.507 67.1635 129.924 76.5459C64.8285 111.247 50.0655 205.608 95.9123 261.688C131.651 305.413 191.715 317.355 243.023 295.269C253.909 290.587 263.82 284.383 273.032 276.97C278.592 272.494 284.393 266.083 291.511 264.185C303.991 260.846 321.135 273.962 328.852 283.067C332.057 286.836 334.887 291.563 334.627 296.702C334.323 302.521 330.428 307.651 326.731 311.823C317.151 322.602 304.779 331.089 292.585 338.609C241.716 369.979 174.481 372.773 118.983 353.193C102.179 347.257 86.0822 338.573 71.7847 327.964C-1.41249 273.631 -19.9535 171.292 23.9415 92.3564C45.9831 52.7228 85.0795 21.6927 128.733 9.17688C142.171 5.32722 155.833 3.08904 169.7 1.54918C185.224 -0.178689 199.916 0.0719843 215.359 2.49816C221.536 3.46506 228.869 3.78735 234.482 6.65221ZM333.535 96.0807C337.68 103.789 339.452 113.503 341.431 121.981C344.493 135.132 346.856 147.953 347.241 161.534C347.474 169.564 347.125 181.042 339.327 185.661C334.922 188.276 329.524 188.043 324.582 188.052C316.525 188.07 308.467 188.052 300.41 188.052C269.675 188.052 238.932 188.132 208.197 188.132C187.597 188.132 166.997 188.204 146.397 188.41C137.641 188.499 126.996 187.362 123.039 178.257C122.099 176.1 121.678 173.799 121.436 171.462C119.431 151.722 142.314 153.826 155.376 153.808C183.72 153.754 212.073 153.924 240.427 153.924C249.379 153.924 258.332 153.924 267.285 153.924C271.994 153.924 277.142 154.488 281.725 153.476C279.21 129.358 275.575 117.782 261.582 97.9697C265.942 96.9939 270.839 97.6116 275.342 97.7011C283.095 97.8444 290.866 98.104 298.619 97.9249C304.259 97.7996 309.98 97.7638 315.602 97.2624C321.628 96.7163 327.51 95.1048 333.535 96.0807Z" fill="#1B57DB" stroke="#1B57DB" stroke-width="0.25" stroke-linejoin="round"/>
<path fill-rule="evenodd" clip-rule="evenodd" d="M1440.7 125.3C1446.07 124.28 1452.04 124.95 1457.5 124.95C1465.91 124.95 1475.31 123.6 1483.1 127.44C1494.44 133.04 1497.73 148.06 1490.79 158.29C1483.7 168.73 1471.65 167.67 1460.5 167.67C1448.28 167.67 1435.19 169.51 1426.96 158.54C1417.6 146.07 1426.06 128.08 1440.7 125.3Z" fill="#C2410C" stroke="#DA3E33" stroke-width="0.25" stroke-linejoin="round"/>
<path fill-rule="evenodd" clip-rule="evenodd" d="M1113.62 298.35C1121.35 297.26 1129.7 298.1 1137.5 298.1C1143.18 298.1 1149.27 297.44 1154.59 299.86C1166.7 305.36 1171.08 321.65 1162.8 332.3C1154.44 343.06 1139.51 340.49 1127.5 340.49C1117.86 340.49 1107.28 341.26 1100.67 332.81C1091.03 320.46 1097.4 300.63 1113.62 298.35Z" fill="#B78701" stroke="#B78701" stroke-width="0.25" stroke-linejoin="round"/>
<path fill-rule="evenodd" clip-rule="evenodd" d="M547.78 126.38C554.06 124.91 561.09 125.69 567.5 125.69C575.13 125.69 583.65 124.6 590.85 127.61C602.55 132.5 606.43 147.9 599.82 158.31C591.89 170.78 576.17 168.03 563.5 168.03C553.95 168.03 544.4 168.86 537.38 161.14C526.99 149.7 532.51 129.95 547.78 126.38Z" fill="#BE195E" stroke="#BE195E" stroke-width="0.25" stroke-linejoin="round"/>
<path fill-rule="evenodd" clip-rule="evenodd" d="M254.266 16.9077C264.009 14.627 274.916 15.8371 284.861 15.8371C296.699 15.8371 309.918 14.146 321.089 18.816C339.241 26.4028 345.261 50.2958 335.006 66.4469C322.702 85.794 298.313 81.5274 278.655 81.5274C263.838 81.5274 249.022 82.8152 238.13 70.8376C222.01 53.0885 230.575 22.4465 254.266 16.9077Z" fill="#E03B3B" stroke="#BE195E" stroke-width="0.25" stroke-linejoin="round"/>
<path d="M951.5 126.99C944.03 126.99 936 126.17 928.6 127.3C912.3 129.78 906 150.06 916.36 162.18C922.91 169.86 932.31 169.27 941.5 169.27C954.18 169.27 971.28 172.39 979.07 159.58C985.79 148.55 981.34 133.24 969.09 128.45C963.56 126.28 957.32 126.99 951.5 126.99Z" fill="#057A55" stroke="#394554" stroke-width="0.25" stroke-linejoin="round"/>
<path d="M151.795 212.931C146.692 212.931 140.909 212.188 135.913 213.334C117.837 217.506 116.951 243.308 134.042 249.539C138.241 251.07 142.932 250.542 147.319 250.542H169.7H247.589C251.958 250.542 256.595 250.971 260.928 250.318C268.887 249.127 275.494 241.929 276.461 234.015C277.679 224.05 270.203 214.131 260.123 213.03C251.367 212.081 242.074 212.931 233.265 212.931H181.339H151.795Z" fill="#64748B" stroke="#394554" stroke-width="0.25" stroke-linejoin="round"/>
</g>
<defs>
<clipPath id="clip0_306_953">
<rect width="1501" height="366" fill="white"/>
</clipPath>
</defs>
</svg>
