<svg width="798" height="219" viewBox="0 0 798 219" fill="none" xmlns="http://www.w3.org/2000/svg">
<path d="M105.281 0.424939C115.027 -0.936667 130.544 1.19429 140.135 3.6956C128.157 12.7539 124.554 23.5269 128.191 38.0228C123.682 37.069 119.829 36.4398 115.186 36.3127C95.7591 35.809 76.9233 43.0155 62.7954 56.357C48.6195 69.9403 41.721 87.9647 41.1954 107.489C39.5976 166.872 100.755 201.073 152.161 172.668C154.934 171.171 157.582 169.455 160.081 167.537C172.418 157.924 175.025 151.955 190.496 163.744C201.69 172.273 203.19 178.906 192.062 189.025C151.752 226.93 80.9675 227.566 38.6598 192.628C16.6998 174.654 2.93813 148.569 0.502122 120.298C-3.36913 78.7465 15.2922 38.3426 51.3728 16.7408C68.9912 6.19275 85.0242 2.08085 105.281 0.424939Z" fill="#1A56DB"/>
<path d="M194.57 57.167L196.807 57.005C196.807 57.005 198.054 56.9652 199.013 57.2151C199.971 57.465 206.232 80.1302 206.616 86.9343C206.966 93.1329 208.702 104.671 204.234 109.454C201.665 112.204 197.734 112.193 193.999 112.204C169.764 112.276 145.416 112.234 121.192 112.245L94.0087 112.25C86.6606 112.25 80.0163 113.774 74.4331 108.584C70.3363 102.006 71.8247 92.9751 80.5059 92.249C89.9739 91.4572 100.015 91.8474 109.574 91.8515L168.054 91.8865C167.407 78.0511 164.295 69.1553 155.748 58.0896C165.95 58.1868 183.759 59.0778 194.57 57.167Z" fill="#1A56DB"/>
<path d="M138.723 21.1199C138.723 12.2833 145.886 5.11987 154.723 5.11987H199.508C208.345 5.11987 215.508 12.2833 215.508 21.1199V34.3715C215.508 43.208 208.345 50.3715 199.508 50.3715H154.723C145.886 50.3715 138.723 43.208 138.723 34.3715V21.1199Z" fill="#E03B3B"/>
<path d="M573.548 83.3137C586.384 81.5117 598.681 88.6252 607.647 97.0267C614.954 89.5015 622.975 84.9335 633.516 83.5848C644.935 82.1394 656.466 85.2766 665.579 92.3097C684.749 107.385 680.929 127.795 681.115 149.386C681.036 159.39 681.244 169.268 681.228 179.293C681.222 183.628 681.638 191.72 678.449 195.119C676.576 197.121 671.356 199.123 668.695 198.873C657.333 197.808 658.868 181.722 658.868 174.439L658.913 142.842C658.93 133.67 660.325 118.948 653.71 111.844C649.969 107.817 644.761 105.479 639.265 105.369C633.708 105.231 628.409 107.205 624.426 111.149C617.221 118.296 618.554 130.217 618.621 139.734C618.621 146.459 620.411 175.113 616.8 176.188C594.673 182.772 595.761 170.511 596.166 157.058C596.538 144.709 596.988 130.614 595.362 120.54C592.291 101.551 563.614 100.166 557.556 117.989C552.01 132.304 559.654 184.343 553.833 193.854C552.494 196.044 550.323 197.592 547.819 198.138C545.063 198.764 540.496 198.362 538.111 196.651C533.245 193.294 533.363 183.751 533.802 178.159C535.208 160.179 531.243 132.393 534.978 115.349C536.344 109.118 539.174 103.301 543.235 98.3794C551.245 88.5876 561.269 84.5162 573.548 83.3137Z" fill="#374151"/>
<path d="M740.198 83.3497C743.561 83.3582 754.761 82.9808 757.253 84.2946C757.253 86.1469 755.192 91.3279 755.243 94.2384C755.299 97.5832 756.876 101.38 757.129 104.154C748.787 107.572 732.536 101.55 726.799 108.6C716.522 121.228 731.456 125.862 740.4 127.137C757.343 129.55 774.926 129.638 787.746 141.78C800.616 153.972 800.07 175.794 787.684 188.02C783.538 192.117 778.419 195.103 772.811 196.703C764.233 199.088 731.659 198.175 720.977 198.137C715.313 198.224 706.318 199.36 701.903 195.115C699.765 193.058 698.978 189.993 699.101 187.098C699.242 183.589 701.16 179.662 704.366 177.994C715.633 172.132 762.45 181.573 771.135 172.933C773.633 170.452 774.685 167.316 774.544 163.825C774.364 159.363 771.506 156.292 767.67 154.341C758.805 149.833 738.341 149.417 727.378 146.607C721.14 145.006 714.79 142.268 709.986 137.877C704.366 132.732 701.863 124.777 701.604 117.312C701.306 108.826 704.119 100.501 709.991 94.2922C718.288 85.5139 728.689 83.7507 740.198 83.3497Z" fill="#374151"/>
<path d="M292.943 9.03773L293.332 8.99554C301.168 8.22277 309.692 8.94774 317.69 8.52649C324.957 8.14404 334.156 9.4978 334.512 18.6878C335.101 33.8513 317.587 30.4745 307.341 30.4689C292.845 30.4616 280.16 33.1089 269.593 43.9817C256.692 57.1436 257.265 70.5844 257.347 87.5758L263.896 87.7828C258.068 96.2242 258.123 100.772 263.49 109.492C261.377 109.459 259.523 109.223 257.591 109.977C257.04 115.696 257.341 124.659 257.342 130.741L257.373 169.163C257.315 176.254 258.708 187.634 255.563 193.612C253.584 197.373 250.586 198.116 246.872 199.105C240.362 197.903 236.207 196.581 235.515 189.219C234.908 182.767 235.144 176.295 235.164 169.818L235.26 136.126L235.197 91.6669C235.183 82.0792 234.491 69.7345 236.308 60.5164C241.812 32.5999 265.658 12.6907 292.943 9.03773Z" fill="#374151"/>
<path d="M476.156 91.4126C475.391 102 475.396 103.158 483.446 110.697C479.744 114.344 475.739 118.38 473.9 123.342C468.551 137.763 477.494 187.871 469.254 195.796C466.576 198.371 462.931 198.335 459.472 198.36C459.134 198.29 458.802 198.213 458.471 198.13C449.437 195.823 449.881 187.064 450.281 179.442C451.164 162.551 449.426 144.593 450.461 127.823C450.641 124.674 451.181 121.556 452.081 118.533C455.951 105.82 464.647 97.4396 476.156 91.4126Z" fill="#374151"/>
<path d="M267.269 99.3542C267.269 93.9812 271.625 89.6255 276.998 89.6255H292.585C297.958 89.6255 302.314 93.9812 302.314 99.3542C302.314 104.727 297.958 109.083 292.585 109.083H276.998C271.625 109.083 267.269 104.727 267.269 99.3542Z" fill="#BE185D"/>
<path d="M483.446 98.3297C483.446 92.9567 487.801 88.601 493.174 88.601H511.299C516.672 88.601 521.028 92.9567 521.028 98.3297C521.028 103.703 516.672 108.058 511.299 108.058H493.174C487.801 108.058 483.446 103.703 483.446 98.3297Z" fill="#057A55"/>
<path d="M588.526 192.164C588.526 186.791 592.882 182.435 598.255 182.435H616.379C621.752 182.435 626.108 186.791 626.108 192.164C626.108 197.537 621.752 201.892 616.379 201.892H598.255C592.882 201.892 588.526 197.537 588.526 192.164Z" fill="#B78600"/>
<path d="M759.605 93.0344C759.605 87.6614 763.961 83.3057 769.334 83.3057H783.189C788.562 83.3057 792.917 87.6614 792.917 93.0344C792.917 98.4074 788.562 102.763 783.189 102.763H769.334C763.961 102.763 759.605 98.4074 759.605 93.0344Z" fill="#C2410C"/>
<path d="M407.188 139.931C407.188 119.685 391.032 103.212 370.91 102.703L369.949 102.691C349.382 102.691 332.708 119.364 332.708 139.931L332.72 140.892C333.222 160.695 349.184 176.657 368.987 177.159L369.949 177.17C390.194 177.17 406.666 161.015 407.176 140.892L407.188 139.931ZM428.188 139.931C428.188 172.096 402.113 198.17 369.949 198.17C337.784 198.17 311.709 172.096 311.708 139.931C311.708 107.766 337.784 81.6908 369.949 81.6908C402.113 81.691 428.188 107.766 428.188 139.931Z" fill="#374151"/>
<path d="M72.2529 138.27C72.2529 132.024 77.3158 126.961 83.5612 126.961H153.722C159.967 126.961 165.03 132.024 165.03 138.27C165.03 144.515 159.967 149.578 153.722 149.578H83.5612C77.3158 149.578 72.2529 144.515 72.2529 138.27Z" fill="#4B5563"/>
</svg>
