<svg width="212" height="58" viewBox="0 0 212 58" fill="none" xmlns="http://www.w3.org/2000/svg">
<path d="M27.9397 0.112772C30.5263 -0.248576 34.6441 0.316944 37.1893 0.980751C34.0108 3.38466 33.0546 6.24365 34.0199 10.0906C32.8231 9.83749 31.8006 9.67051 30.5684 9.63678C25.4129 9.50311 20.4142 11.4156 16.6648 14.9562C12.9028 18.561 11.0721 23.3443 10.9326 28.5257C10.5085 44.2851 26.7387 53.3615 40.3811 45.8231C41.1169 45.4259 41.8196 44.9706 42.4828 44.4615C45.757 41.9103 46.4486 40.3264 50.5545 43.4548C53.5252 45.7184 53.9232 47.4787 50.9701 50.1641C40.2725 60.2235 21.4874 60.3921 10.2597 51.1201C4.43185 46.3503 0.779731 39.4276 0.133255 31.925C-0.894111 20.898 4.05829 10.1755 13.6335 4.44272C18.3091 1.64345 22.564 0.552222 27.9397 0.112772Z" fill="white"/>
<path d="M51.6355 15.1712L52.2293 15.1282C52.2293 15.1282 52.5603 15.1176 52.8147 15.1839C53.0691 15.2503 54.7305 21.2652 54.8324 23.0709C54.9253 24.7159 55.3861 27.778 54.2003 29.0472C53.5184 29.7771 52.4753 29.7742 51.484 29.7771C45.0524 29.7961 38.591 29.7851 32.1624 29.7879L24.9483 29.7893C22.9983 29.7892 21.235 30.1936 19.7533 28.8164C18.6661 27.0706 19.0611 24.674 21.3649 24.4813C23.8776 24.2712 26.5423 24.3748 29.0791 24.3759L44.5987 24.3851C44.427 20.7135 43.601 18.3527 41.333 15.416C44.0403 15.4418 48.7667 15.6783 51.6355 15.1712Z" fill="white"/>
<path d="M36.8148 5.60486C36.8148 3.25979 38.7158 1.35873 41.0609 1.35873H52.9461C55.2912 1.35873 57.1922 3.25979 57.1922 5.60486V9.12161C57.1922 11.4667 55.2912 13.3677 52.9461 13.3677H41.0609C38.7158 13.3677 36.8148 11.4667 36.8148 9.12162V5.60486Z" fill="white"/>
<path d="M152.21 22.1101C155.617 21.6318 158.88 23.5197 161.259 25.7493C163.198 23.7522 165.327 22.5399 168.125 22.182C171.155 21.7984 174.215 22.631 176.633 24.4974C181.721 28.4982 180.707 33.9146 180.756 39.6446C180.736 42.2994 180.791 44.9209 180.786 47.5812C180.785 48.7319 180.895 50.8794 180.049 51.7812C179.552 52.3126 178.167 52.8439 177.46 52.7776C174.445 52.4948 174.853 48.2259 174.853 46.2931L174.864 37.9078C174.869 35.4739 175.239 31.5667 173.484 29.6816C172.491 28.6128 171.109 27.9925 169.65 27.9631C168.175 27.9265 166.769 28.4505 165.712 29.4971C163.8 31.3938 164.154 34.5573 164.172 37.0832C164.172 38.8677 164.647 46.4721 163.688 46.7573C157.816 48.5047 158.105 45.2509 158.213 41.6806C158.311 38.4032 158.43 34.6628 157.999 31.9893C157.184 26.95 149.574 26.5823 147.966 31.3123C146.494 35.1113 148.523 48.9216 146.978 51.4455C146.623 52.0267 146.046 52.4376 145.382 52.5824C144.651 52.7485 143.438 52.642 142.806 52.1878C141.514 51.2969 141.546 48.7644 141.662 47.2803C142.035 42.5089 140.983 35.1348 141.974 30.6116C142.337 28.958 143.088 27.4144 144.165 26.1082C146.291 23.5097 148.951 22.4292 152.21 22.1101Z" fill="white"/>
<path d="M196.436 22.1196C197.329 22.1219 200.301 22.0217 200.962 22.3704C200.962 22.8619 200.415 24.2369 200.429 25.0093C200.444 25.8969 200.862 26.9046 200.929 27.6407C198.715 28.5477 194.403 26.9498 192.88 28.8206C190.153 32.172 194.116 33.4017 196.49 33.7399C200.986 34.3803 205.652 34.4037 209.054 37.626C212.47 40.8616 212.325 46.6527 209.038 49.8974C207.938 50.9846 206.579 51.777 205.091 52.2017C202.815 52.8345 194.17 52.5923 191.335 52.5823C189.832 52.6053 187.445 52.9069 186.273 51.7802C185.706 51.2345 185.497 50.421 185.53 49.6526C185.567 48.7214 186.076 47.6793 186.927 47.2368C189.917 45.681 202.341 48.1865 204.646 45.8936C205.309 45.2351 205.588 44.4029 205.551 43.4765C205.503 42.2923 204.745 41.4772 203.727 40.9596C201.374 39.7633 195.943 39.6528 193.034 38.907C191.378 38.4822 189.693 37.7556 188.418 36.5902C186.927 35.2249 186.263 33.1137 186.194 31.1327C186.115 28.8806 186.861 26.6714 188.42 25.0236C190.622 22.694 193.382 22.226 196.436 22.1196Z" fill="white"/>
<path d="M77.742 2.39846L77.8455 2.38727C79.9251 2.18219 82.1869 2.37458 84.3095 2.26279C86.2382 2.16129 88.6793 2.52056 88.774 4.95943C88.9303 8.98358 84.2822 8.08743 81.5632 8.08593C77.7162 8.08399 74.3497 8.78655 71.5455 11.672C68.1218 15.1649 68.2738 18.7319 68.2957 23.2411L70.0335 23.2961C68.4868 25.5363 68.5014 26.7432 69.9258 29.0574C69.365 29.0485 68.873 28.9859 68.3603 29.1859C68.2141 30.7039 68.2939 33.0825 68.2944 34.6964L68.3024 44.893C68.2871 46.7748 68.6568 49.795 67.8222 51.3815C67.297 52.3796 66.5012 52.5766 65.5157 52.8391C63.788 52.52 62.6852 52.1694 62.5016 50.2156C62.3407 48.5033 62.4033 46.7858 62.4086 45.067L62.4342 36.1257L62.4173 24.3268C62.4136 21.7824 62.2299 18.5064 62.7123 16.06C64.1728 8.65147 70.5011 3.36789 77.742 2.39846Z" fill="white"/>
<path d="M126.364 24.2594C126.161 27.069 126.162 27.3763 128.298 29.3771C127.316 30.3449 126.253 31.416 125.765 32.7329C124.345 36.5599 126.719 49.8579 124.532 51.9611C123.822 52.6442 122.854 52.6347 121.936 52.6415C121.847 52.6229 121.758 52.6024 121.67 52.5803C119.273 51.9682 119.391 49.6435 119.497 47.6208C119.731 43.1383 119.27 38.3725 119.545 33.922C119.592 33.0863 119.736 32.2589 119.975 31.4567C121.002 28.0828 123.309 25.8588 126.364 24.2594Z" fill="white"/>
<path d="M70.9287 26.3669C70.9287 24.941 72.0846 23.7851 73.5105 23.7851H77.6472C79.0731 23.7851 80.229 24.941 80.229 26.3669C80.229 27.7928 79.0731 28.9488 77.6472 28.9488H73.5105C72.0846 28.9488 70.9287 27.7928 70.9287 26.3669Z" fill="white"/>
<path d="M128.298 26.095C128.298 24.6691 129.454 23.5132 130.88 23.5132H135.69C137.116 23.5132 138.272 24.6691 138.272 26.095C138.272 27.5209 137.116 28.6769 135.69 28.6769H130.88C129.454 28.6769 128.298 27.5209 128.298 26.095Z" fill="white"/>
<path d="M156.185 50.9971C156.185 49.5711 157.341 48.4152 158.767 48.4152H163.577C165.003 48.4152 166.159 49.5711 166.159 50.9971C166.159 52.423 165.003 53.5789 163.577 53.5789H158.767C157.341 53.5789 156.185 52.423 156.185 50.9971Z" fill="white"/>
<path d="M201.586 24.6898C201.586 23.2639 202.742 22.1079 204.168 22.1079H207.845C209.271 22.1079 210.427 23.2639 210.427 24.6898C210.427 26.1157 209.271 27.2716 207.845 27.2716H204.168C202.742 27.2716 201.586 26.1157 201.586 24.6898Z" fill="white"/>
<path d="M108.061 37.1353C108.061 31.7625 103.773 27.3908 98.4332 27.2555L98.1782 27.2524C92.72 27.2524 88.2952 31.6772 88.2952 37.1353L88.2983 37.3904C88.4315 42.6458 92.6674 46.8817 97.9229 47.0149L98.1782 47.018C103.551 47.018 107.922 42.7306 108.058 37.3904L108.061 37.1353ZM113.634 37.1353C113.634 45.6713 106.714 52.591 98.1782 52.5911C89.6421 52.5911 82.7222 45.6713 82.7222 37.1353C82.7222 28.5993 89.6421 21.6794 98.1782 21.6794C106.714 21.6794 113.634 28.5993 113.634 37.1353Z" fill="white"/>
<path d="M19.1747 36.6945C19.1747 35.0371 20.5183 33.6934 22.1757 33.6934H40.7953C42.4527 33.6934 43.7963 35.0371 43.7963 36.6945C43.7963 38.3519 42.4527 39.6955 40.7953 39.6955H22.1757C20.5183 39.6955 19.1747 38.3519 19.1747 36.6945Z" fill="white"/>
</svg>
